P2
# Created by GIMP version 2.10.30 PNM plug-in
18 18
255
255
255
255
255
255
255
255
255
255
255
255
255
255
255
255
255
255
255
255
255
255
255
255
255
255
255
255
255
255
255
255
255
255
255
255
255
255
255
255
255
255
255
255
254
255
255
251
255
255
255
255
255
255
255
255
255
255
255
0
0
0
0
0
0
0
0
0
0
255
255
255
255
255
255
255
0
0
255
255
255
255
255
255
255
255
0
0
255
255
255
255
255
255
0
255
255
255
255
255
255
255
255
255
255
0
255
255
255
255
255
0
0
255
255
255
255
255
255
255
255
255
255
0
255
255
255
255
255
0
255
255
255
255
255
255
255
255
255
255
255
255
255
255
255
255
255
0
255
255
255
255
255
255
255
255
255
255
255
255
255
255
255
255
255
0
255
255
255
255
255
255
255
255
255
255
255
255
255
255
255
255
255
0
255
255
255
255
255
255
255
255
255
255
255
255
255
255
255
255
255
0
255
255
255
255
255
255
255
255
255
255
255
253
255
255
255
255
255
0
255
255
255
255
255
255
255
255
255
255
255
254
254
255
255
255
255
0
255
255
255
255
255
255
255
255
255
255
255
0
255
255
255
255
255
0
0
255
255
255
255
255
255
255
255
255
255
0
255
255
255
255
255
255
0
0
255
255
255
255
255
255
255
255
255
0
255
255
255
255
255
255
255
0
0
0
0
0
0
0
0
0
0
0
255
255
255
255
255
255
255
255
255
255
255
255
255
255
255
255
255
255
255
255
255
