P2
# Created by GIMP version 2.10.30 PNM plug-in
18 18
255
255
255
255
255
255
255
255
255
255
255
255
255
255
255
255
255
255
255
255
255
255
255
255
255
255
255
255
255
255
255
0
255
255
255
255
255
255
255
255
255
255
255
255
255
255
255
255
255
0
255
255
255
255
255
255
255
255
255
255
255
255
255
255
255
255
255
0
255
255
255
255
255
255
255
255
255
255
255
255
255
255
255
255
255
0
255
255
255
255
255
255
255
255
255
255
255
255
255
255
255
255
255
0
255
255
255
255
255
255
255
255
255
255
255
255
255
255
255
255
255
0
255
255
255
255
255
255
255
255
255
255
255
255
255
255
255
255
255
3
255
255
255
255
255
255
255
255
255
255
0
0
0
0
0
0
0
19
254
255
255
255
255
255
255
255
255
0
0
255
255
255
255
255
255
0
255
255
255
255
255
255
255
255
0
0
255
255
255
255
255
255
255
0
255
255
255
255
255
255
255
255
0
255
255
255
255
255
255
255
255
0
255
255
255
255
255
255
255
255
0
255
255
255
255
255
255
255
255
0
255
255
255
255
255
255
255
255
0
255
255
255
255
255
255
255
255
0
255
255
255
255
255
255
255
255
0
255
255
255
255
255
255
255
255
0
255
255
255
255
255
255
255
255
0
0
255
255
255
255
255
255
255
0
255
255
255
255
255
255
255
255
255
0
0
0
0
0
0
0
0
0
255
255
255
255
255
255
255
255
255
255
255
255
255
255
255
255
255
255
255
255
255
255
255
